# xmcd
#
# Track frame offsets:
#	150
#	14509
#	32349
#	47977
#	74422
#	90034
#	102353
#	119437
#	136760
#	154725
#	155757
#	182909
#	206672
#	225362
#	246106
#	262716
#	288845
#	304344
#
# Disc length: 4334 seconds
#
# Revision: 0
# Processed by: cddbd v1.4PL0 Copyright (c) Steve Scherf et al.
# Submitted via: MusicWizard 6.0.1
#
DISCID=eb10ec12
DTITLE=Various Artist - John Denver - Annie Song
DYEAR=1900
DGENRE=Rock - Pop
TTITLE0=John Denver - Annie's Song
TTITLE1=Frankie Goes To Hollywood - Relax
TTITLE2=Doctor And The Medics - Spirit In The Sky
TTITLE3=Deep Purple - Woman From Tokyo
TTITLE4=Ac/Dc - Thunderstruck
TTITLE5=Frankie Ford - Sea Cruise
TTITLE6=Ac/Dc - Money Talks
TTITLE7=Human League - I'm Only Human
TTITLE8=Human League - Obsession
TTITLE9=Men At Work - Downunder
TTITLE10=Saga - Don't Be Late
TTITLE11=Ac/Dc - All Day Long
TTITLE12=Prism - Spaceship Superstar
TTITLE13=Men Without Hats - Safety Dance
TTITLE14=Men At Work - Be Good Johnny
TTITLE15=George Michael - I Want Your Sex
TTITLE16=Rick James - Super Freak
TTITLE17=Clarence Carter - Strokin'
EXTD=
EXTT0=
EXTT1=
EXTT2=
EXTT3=
EXTT4=
EXTT5=
EXTT6=
EXTT7=
EXTT8=
EXTT9=
EXTT10=
EXTT11=
EXTT12=
EXTT13=
EXTT14=
EXTT15=
EXTT16=
EXTT17=
PLAYORDER=
